<?xml version="1.0" encoding="UTF-8"?>
<svg id="_图层_2" data-name="图层 2" xmlns="http://www.w3.org/2000/svg" viewBox="0 0 338.73 71.3">
  <g id="_图层_1-2" data-name="图层 1">
    <g>
      <path d="M55.59,4.27c-17.21,2.75-21.82,6.89-17.41,15.75,9.03,18.15,31.01,32.73,63.59,44.09,6.27,2.19,14.51,3.24,20.9,4.61-15.81,3.43-23.21,4.04-43.58-1.98-25.92-7.67-45.35-18.17-60.25-30.31C9.95,29.18,3.23,21.51,.51,13.31-.39,10.61-.1,7.65,1.39,5.01,3.61,1.05,11.89-.73,20.74,.27c11.26,1.27,22.5,2.57,34.85,3.99Z"/>
      <path d="M113.47,11.71c-12.66,1.83-17.82,4.25-17.26,9.29,1.85,16.78,16.94,30.63,48.25,40.45,4.15,1.3,9.53,1.82,14.08,2.65-13.63,3.36-27.06,2.8-39.48-1.58-30.87-10.88-49.08-25.09-54.34-42.47-.74-2.45,.69-5.18,2.39-7.6,2.05-2.9,9.22-4.76,15.52-4.18,9.66,.89,19.16,2.11,30.84,3.43Z"/>
      <path d="M167.28,18.63c-9.2,1.43-12.24,4.62-12.48,8.05-.86,12.12,8.39,22.43,29.9,30.18,2.89,1.04,6.73,1.55,10.16,2.31-21.93,3.94-29.3,4.05-47.24-4.99-17.01-8.57-26.5-18.81-25.73-30.51,.46-7.02,8.27-9.47,23.19-7.66,7.39,.9,14.8,1.75,22.2,2.63Z"/>
      <path d="M233.81,54.33c-2.52,.35-4.36,.61-6.21,.85-17.39,2.3-23.82,1.3-34.15-5.49-8.37-5.5-12.75-11.61-12.6-18.27,.04-1.89,1.07-3.88,2.65-5.64,2.58-2.89,7.87-3.86,14.7-3.05,7.15,.85,14.29,1.73,19.65,2.39-2.73,2.23-6.59,4.25-7.77,6.55-4.13,8,6.83,18.38,23.73,22.66Z"/>
      <path d="M268.3,31.55c-10.35,5.01-8.25,12.34,4.86,17.62-5.8,.76-11.14,1.84-16.64,2.04-3.57,.13-8.45-.57-10.89-1.7-10.38-4.81-12.89-10.75-9.45-17.13,1.57-2.91,7.08-4.05,13.43-3.24,6.03,.77,12.04,1.55,18.69,2.41Z"/>
      <path d="M338.73,40.57c-16.35,2.19-30.62,4.22-45.09,5.91-2.16,.25-6.39-.74-7.61-1.68-2.09-1.61-3.37-3.63-3.52-5.5-.34-4.07,3.89-5.4,12.64-4.31,13.89,1.74,27.75,3.54,43.59,5.57Z"/>
    </g>
  </g>
</svg>