<?xml version="1.0" encoding="UTF-8"?>
<svg id="_图层_2" data-name="图层 2" xmlns="http://www.w3.org/2000/svg" viewBox="0 0 336.53 71.3">
  <defs>
    <style>
      .cls-1 {
        fill: #f93500;
      }
    </style>
  </defs>
  <g id="_图层_1-2" data-name="图层 1">
    <path class="cls-1" d="M307.15,34.63c9.8-4.87,19.61-9.74,29.37-14.58,.27,4.3-3.27,8.3-9,11.94-13.04,8.27-31.27,13.8-51.79,17.96-40.16,8.15-82.96,9.89-126.51,9.54-10.04-.08-20.07-.56-30.2-.5,47.65,8.74,97.61,10.65,148.68,9.42-35.07,3.18-70.32,3.58-105.89,1.94-31.04-1.43-61.03-4.35-89.17-10.37-4.94-1.06-9.62-2.36-14.29-3.63-16.05-4.39-26.43-10.29-25.72-19.65-13.29,4.21-23.18,8.97-30.4,14.84-.74-.11-1.49-.21-2.23-.32,1.47-2.6,1.65-5.54,4.68-7.72,5.65-4.07,11.85-8.22,19.78-11.41,25.67-10.33,57.15-15.41,91.15-17.97,33.34-2.51,66.75-3.2,100.37-1.31,1.16,.07,2.36,0,3.61-.25C171.5,3.55,120.97,1.81,69.24,2.53c12.31-.65,24.58-1.47,36.93-1.92,49.16-1.79,97.3,.24,143.7,7.92,8.47,1.4,16.6,3.3,24.49,5.27,17.79,4.45,30.94,10.36,30.11,20.27,.9,.19,1.8,.38,2.69,.57Zm-141.69,11.13c16.37-.65,31.94-1.58,46.33-4.84,5.35-1.21,10.87-2.72,10.85-5.74-.02-3.04-5.45-4.77-11.16-5.52-10.68-1.41-21.62-2.86-32.64-3.27-19.28-.72-38.43,.23-55.61,4.59-12.08,3.07-11.79,7.19,.17,10.26,1.85,.47,3.77,.99,5.82,1.19,12.06,1.16,24.16,2.23,36.25,3.33Z"/>
  </g>
</svg>