<?xml version="1.0" encoding="UTF-8"?>
<svg id="_图层_2" data-name="图层 2" xmlns="http://www.w3.org/2000/svg" viewBox="0 0 321.29 68.04">
  <defs>
    <style>
      .cls-1 {
        fill: #4800f7;
      }
    </style>
  </defs>
  <g id="_图层_1-2" data-name="图层 1">
    <path class="cls-1" d="M232.53,51.46c6.45,1.94,12.91,3.88,19.36,5.82l-.39,.29c-8.68-.87-17.36-1.75-27.57-2.78v13.1c-.51,.05-1.03,.1-1.54,.15-6.45-3.58-12.9-7.17-19.81-11.01-8.38,3.29-16.41,6.43-24.43,9.58-.33-.07-.65-.13-.98-.2,4.15-3.63,8.3-7.27,12.98-11.37-18.86,.42-36.56,.81-54.25,1.2-.17-.18-.34-.36-.51-.53,13.37-2.39,26.74-4.78,41.45-7.41-13.01-1.13-24.65-2-36.05-3.17-39.89-4.1-78.47-9.32-112.38-18.26C16.58,23.76,5.94,20.22,1.48,14.9-2.2,10.51,.83,6.53,12.15,4.44c9.79-1.81,20.87-2.99,31.74-3.68,24.7-1.55,49.48-.48,73.99,.9,48.54,2.74,95.49,7.59,139.35,15.67,16.39,3.02,31.28,7.2,46.01,11.26,5.97,1.64,10.55,4.19,14.23,6.64,7.36,4.89,4.06,9.39-9.86,11.66-11.3,1.84-23.79,3.07-36.08,3.67-12.58,.61-25.56,.14-38.36,.14-.21,.25-.43,.5-.64,.76Zm12.43-22.81c.44,.13,.87,.25,1.31,.38-5.95,4.63-11.91,9.26-18.23,14.18h44.31c.11,.16,.22,.32,.33,.47-8.09,1.47-16.18,2.95-24.27,4.42,.32,.33,.63,.67,.95,1,12.09-.81,24.63-1.14,36.16-2.55,18.96-2.32,23.73-7.98,11.65-13.79-6.65-3.19-14.98-6.23-24.27-8.34-49.15-11.15-103.16-16.19-161.01-15.64-11.91,.11-23.77,.97-34.11,3.41-11.75,2.77-15.56,7.21-9.07,11.7,3.12,2.16,7.72,4.15,12.66,5.83,14.27,4.84,31.34,8.12,49.31,10.73,13.03,1.89,26.5,3.38,39.77,5.06,.31-.25,.61-.51,.92-.76-11.1-2.74-22.2-5.48-33.31-8.22l.5-.38c16.66,2.18,33.32,4.37,50.73,6.65-2.29-9.04-4.5-17.74-6.7-26.45,.42-.04,.84-.08,1.27-.11,10.45,8,20.9,16,31.79,24.33,10.24-4.16,19.78-8.04,29.32-11.92Z"/>
  </g>
</svg>