<?xml version="1.0" encoding="UTF-8"?>
<svg id="_图层_2" data-name="图层 2" xmlns="http://www.w3.org/2000/svg" viewBox="0 0 753.94 219">
  <g id="_图层_1-2" data-name="图层 1">
    <g>
      <path d="M599.15,151.78c-.18-2.54-1.78-4.48-4.14-5.35-.04-.01-.08-.01-.11-.02-.3-.63-.73-1.2-1.31-1.64-5.68-4.24-11.41-8.41-17.18-12.53-2.1-2.13-4.39-4.05-6.89-5.77-.34-.24-.68-.34-1-.35-.89-1.16-3.21-1.19-3.77,.68-1.59,5.37-2.66,11.48-5.19,16.5-1.16,2.3-2.65,4.45-3.98,6.65-.69,1.13-1.38,2.27-2.06,3.4-.36,.6-1.69,3.66-2.19,3.87-.96,.41-1.83,1.47-1.37,2.6,.03,.07,.05,.13,.08,.2,.44,1.07,1.53,1.72,2.61,1.37,7,.39,14.01,.47,21.02,.24,7.14-.24,15.92,.29,22.18-3.65,1.91-1.2,2.69-2.94,2.68-4.67,.42-.38,.68-.92,.64-1.53Z"/>
      <path d="M557.55,119.06c-.5-.34-1-.68-1.5-1.02-.04-.24-.11-.49-.24-.72-.75-1.33-1.82-1.86-3.04-2.23-.32-.38-.6-.72-.69-.8l-2.33-2.45c-.71-.75-1.77-.69-2.54-.19-.36-.52-.69-1.05-1.01-1.56-.54-.85-1.37-1.07-2.13-.89-.98-1.36-3.42-1.49-3.63,.55-.87,8.32-3.06,16.38-6.75,23.9-1.78,3.62-3.82,7.1-6,10.5-1.15,1.79-2.33,3.56-3.53,5.31-.89,1.31-2.04,3.83-3.74,4.11-2.28,.37-2.48,3.62-.72,4.11,.25,.29,.61,.5,1.09,.56,2.04,.27,4.09,.55,6.13,.82,.09,.05,.18,.09,.28,.13,2.7,.93,5.41,1.34,8.22,1.23,.87,.25,1.75,.46,2.62,.52,3.99,.31,7.47-4.77,9.47-7.57,6.7-9.38,8.63-21,11.63-31.88,.37-1.34-.55-2.24-1.61-2.44Z"/>
      <path d="M749.66,206.96c-24.36-4.75-47.91-12.9-69.92-24.38-7.31-3.81-14.44-7.97-21.36-12.46,.3-.25,.57-.54,.81-.85-2.77-1.33-5.44-2.76-7.89-4.07-3.67-1.97-9.15-5.37-11.46-9.67-.37-.41-.67-.84-.9-1.3l-2.12-.77c-1.6-.58-3.76-1.07-5.03-2.29-.36-.34-.66-.76-.93-1.22,.12-1.59-.41-3.08-1.42-4.19-.33-1.62-.54-3.25-.82-4.48-1.06-4.67-2.12-9.34-3.18-14-.02-.08-.04-.15-.07-.23,.28-5.38-2.38-10.28-7.09-12.72-.15-5.35-.04-10.71,.34-16.08,.24-3.41-3.16-5.46-6.06-5.69-21.41-1.72-42.82-3.45-64.23-5.17,22.65-3.91,45.22-8.22,67.71-12.94,.39,.26,.78,.53,1.16,.79-.59-.12-1.19-.24-1.79-.33-4.81-.72-6.64,6.67-1.79,7.39,8.77,1.32,16.52,6.63,24.21,10.76,8.05,4.33,16.17,8.54,24.61,12.07,10,4.19,20.51,7.44,31.24,8.8,1.23,.21,2.47,.39,3.7,.56,3.62-2.45,7.35-3.54,11.96-3.38,.74,.03,1.48,.09,2.23,.17,2.1-1.07,4.35-1.59,6.62-1.63-.02-.77-.24-1.51-.65-2.1-.17,0-.34,.03-.52,.03-1.65,0-3.05-.4-4.19-1.06-17.35,1.98-34.45-2.56-50.26-9.58-7.95-3.53-15.64-7.6-23.28-11.73-5.98-3.92-11.85-7.97-17.64-11.94,.07-.02,.14-.03,.22-.05,17.74-3.79,35.43-7.84,53.05-12.14,16.04-3.92,32.29-8.01,46.79-16.19,6.6-3.72,13.01-8.35,17.9-14.19,4.56-5.44,10.42-14.36,7.33-21.69-3.2-7.58-15.13-7.95-22.07-8.56-8.45-.74-16.95-.36-25.42-.11-18.18,.55-36.42,1.24-54.41,4.07-17.83,2.81-34.84,8.03-51.72,14.33-8.99,3.36-18.01,6.74-26.99,10.2-.31-.32-.72-.59-1.23-.81-9.36-3.88-18.19-8.88-26.21-15.07-2.47-1.9-6.58-.65-6.41,2.89,.28,5.79-3.61,11.08-6.77,15.64-3.31,4.77-7.13,9.17-11.24,13.26-.17,.17-.32,.35-.45,.53-.63,.4-1.09,.92-1.39,1.51-.81-1.15-2.2-1.79-3.95-1.1-7.11,2.8-14.08,5.92-20.91,9.33-4.03,2.01-.89,7.64,3.03,6.8-.6,.68-1.19,1.37-1.79,2.06-.93,.52-1.87,1.04-2.8,1.57-1.6-3.09-3.16-6.19-4.68-9.31,.91-.07,1.85-.41,2.8-1.09,6.4-4.59,12.9-9.75,15.61-17.43,2.76-7.83,.04-16.99-6.63-21.96-1-.75-2.14-1.25-3.29-1.43-.71-.53-1.52-.9-2.38-.99-6-2.96-12.81-2.14-18.98,.11-7.13,2.59-14.05,6.2-20.71,9.81-.52,.28-1.02,.58-1.54,.86-14.85,5.63-29.04,12.99-42.23,22.07-2.2,1.51-2.84,3.74-2.47,5.79-4.98-3.91-10.95-6.61-17.33-7.71-9.48-1.63-20.58-.59-29.21,4.28-.23-.12-.48-.23-.73-.31-2.17-.7-4.35-1.4-6.52-2.1-.65-.21-1.32-.18-1.95,.03-5.16-1.93-10.23-4.13-15.19-6.47-3.36-1.59-6.68-3.23-9.99-4.92-.16-.17-.36-.32-.61-.44-.73-.33-1.45-.66-2.18-.99-5.24-2.7-10.45-5.46-15.67-8.19-4.33-2.27-8.67-4.53-13-6.8-3.6-1.88-8.33-5.66-12.61-4-2.25,.87-3.84,2.86-5.23,4.92-2.31,2.66-4.51,5.41-6.6,8.23-4.5,2.43-8.79,5.22-12.85,8.39-2.08,1.63,.1,5.16,2.2,3.52,1.64-1.28,3.33-2.51,5.04-3.67-.73,1.17-1.44,2.35-2.13,3.54-4.63,6.04-9.43,11.95-14.39,17.72-2.44,2.84-4.93,5.64-7.45,8.41-11.61-3.28-23.19-6.68-34.73-10.2-3.68-1.12-7.35-2.26-11.01-3.4-3.61-1.13-7.85-3.27-11.71-3.02-3.24,.22-5.8,1.74-7.88,3.86,1.28,3.65,.97,7.86-.86,11.57-2.65,5.35-6.01,10.24-9.41,15.11-.02,2.27-.57,4.57-1.7,6.67-3.51,6.52-7.72,12.58-11.91,18.67-.92,1.46-1.88,2.88-2.86,4.29-.17,.3-.34,.61-.5,.91-1.18,2.1-2.41,4.16-3.72,6.18-.86,1.33-1.76,2.62-2.7,3.89-1.11,1.96-2.4,3.76-3.8,5.45-.29,.89-.67,1.71-1.18,2.39-3.17,4.23-6.34,8.47-9.75,12.52-.95,3.76-3.35,7.08-7.2,8.69-.23,.22-.46,.44-.72,.64-6.29,4.97-12.46,10.07-18.83,14.93-1.17,2.04-2.82,3.88-4.79,5.4-6.71,5.17-14.24,9.24-22.09,12.49-3.19,1.92-6.49,3.62-9.89,5.13-2.07,1.25-4.16,2.48-6.25,3.72-1.69,1-3.47,1.55-5.27,1.73-12.46,6.01-25.72,10.19-39.29,12.96-2.25,.46-4.53,.43-6.65-.05-.1,1.1-.31,2.18-.64,3.23,.76,0,1.45,.13,2.07,.34,1.65-.33,3.3-.65,4.96-.92,8.81-1.83,17.72-3.07,26.72-2.6,1.81-.11,3.61-.22,5.42-.34,1.18-.46,2.35-.92,3.52-1.41,22.39-9.4,42.5-23.14,61.35-38.3,10.15-8.17,19.99-16.7,29.76-25.31,.47-.18,.92-.4,1.34-.67,.43-.9,.98-1.73,1.67-2.48l.68-.56c.06-.17,.11-.35,.16-.53,.26-.22,.5-.43,.66-.59,.99-1.02,1.95-2.06,2.88-3.14,2.18-2.51,4.18-5.18,6.09-7.9,.13-.19,.26-.38,.39-.58,.06,0,.12-.01,.18-.02,.99-1.44,2.28-2.4,3.78-3.18-.1,.04-.05,0,.15-.12,.11-.1,.22-.21,.31-.32,.02-.02,.04-.05,.06-.07,1-1.51,.45-.55,0,0-.06,.09-.12,.18-.19,.29,.01,0,.02,0,.03-.02,.15-.21,.29-.42,.43-.63,1.28-1.85,2.48-3.44,3.93-4.88,3.63-6.56,8.14-12.57,12.46-18.71,2.61-3.7,5.15-7.46,7.34-11.42,1.09-1.98,2.08-4.01,2.98-6.08,.44-1.03,1.1-3.67,2-4.35,.88-.67,1.61-1.48,2.18-2.37,.33-3.47,3.35-7.02,7.82-6.25,8.63,1.49,16.9,4.39,25.33,6.67,6.54,1.77,5.24,10.57,.04,12.09-4.54,4.38-9.16,8.67-13.9,12.84-16.22,14.29-33.58,27.24-51.84,38.79-.78,.5-1.02,1.24-.91,1.95,.88-.19,1.77-.34,2.67-.43,2.44-.78,4.84-1.69,7.29-2.44,22.99-15.19,44.46-32.64,64-52.06,.32,.09,.65,.18,.97,.27,.18-.3,.37-.58,.6-.84,.58-2.5,2.53-4.63,5.86-4.61,10.4,.05,20.78,.85,31.01,2.76,5.09,.95,10.07,2.11,14.86,4.11,4.05,1.69,7.9,3.61,12.24,4.46,2.79,.54,4.17,2.4,4.45,4.5,1.18,2.15,1.09,5.03-.28,7.07,.04,2.26,.35,4.54,.99,6.8,0,.02,.01,.03,.02,.05-.34-.03-.68-.07-1.02-.1-.2,1.14-.7,2.25-1.47,3.17-.34,1.43-1.18,2.73-2.5,3.47-6.2,3.43-11.25,9-16.45,13.75-3.67,3.35-7.28,6.96-11.21,10.12-.5,.52-1.05,1-1.66,1.42-11.45,7.84-24.34,13.31-36.81,19.45-1.06,2.03-2.97,3.63-5.27,4.53-2.53,.98-4.98,2.12-7.4,3.34-.19,.17-.39,.33-.6,.49-6.01,4.53-11.89,9.06-18.23,12.89-3.32,3.42-7.18,6.34-11.26,8.96,.91-.31,1.86-.52,2.8-.55,.19,0,.37-.02,.56-.03,.21-.09,.43-.17,.65-.25,5.96-3.91,12.74-6.73,19.41-9.01,.38-.13,.76-.22,1.15-.29,4.33-2.76,9.01-4.87,13.92-6.66,.35-.13,.69-.25,1.04-.37,1.61-.98,3.25-1.94,4.9-2.84,3.73-2.04,7.52-3.91,11.4-5.62,4.55-3.18,9.37-5.91,14.58-8.21,1.43-1.28,3.28-1.98,5.19-2.13,5.7-3.54,11.31-7.22,17.03-10.74,7.82-4.81,15.92-9.12,24.35-12.73,3.22-2.29,6.43-4.61,9.59-6.98,.76,.33,1.54,.62,2.34,.83,2.88,.76,5.9,.71,8.89,.31,9.59-.22,18.76-4.44,25.85-10.77,1.49-1.33,2.87-2.78,4.14-4.33,6.56,8.14,15.87,14.01,26.36,15.43,7.36,1,14.5,.04,21.06-2.59,.27,3,.83,5.95,1.64,8.82,.75,1.54,1.29,3.19,1.68,4.94,.02,.04,.03,.08,.05,.12,3.51,2.15,6.38,5.31,8.07,9.07,.34,.77,.58,1.57,.68,2.37,.87,1.22,1.75,2.43,2.65,3.63,.76,1.01,1,2.18,.9,3.35,2.9,2.83,6.12,5.34,9.59,7.43-12.42,3.13-24.35,8.02-35.85,13.83-13.05,6.6-33.47,15.26-33.5,32.58,0,.35,.04,.68,.09,.99,4.27-8.04,11.06-15.33,19.18-19.5,.39-1.06,1.02-2.02,1.93-2.78,6.54-5.49,14.23-5.49,22.35-5.49,13.28-6.3,27.39-11.16,42.02-12.9,.84-1.1,1.76-2.14,2.83-3.09,.04-.23,.07-.47,.11-.7,0,0,0,0,0,0,.19-1.22,.34-2.45,.48-3.68-.28,.04-.57,.06-.86,.05-1.54-.08-2.14-.29-3.38-.83-.62-.14-1.21-.36-1.78-.69-.42-.33-.84-.65-1.27-.98-.67-.61-1.12-1.38-1.41-2.22-14.95-6-26.01-20.58-26.67-37.02-.03-.83-.24-1.55-.57-2.15,.01,0,.02-.02,.04-.02,.26,.35,.58,.69,.95,1.01,10.51,9.06,23,15.53,36.48,18.68,.02,.27,.05,.54,.11,.8,.36,.12,.72,.24,1.08,.39,1.59,.65,.11,.11,1.69,.62,1.09,.35,2.17,.72,3.26,1.05,1.88,.56,3.78,1.06,5.69,1.51,.09,.02,.18,.04,.28,.06,3.01,.03,5.99,.25,9,.69,1.08,.16,2.05,.55,2.92,1.1,.07,0,.14,.02,.21,.02-.09-.33-.19-.65-.28-.98,.16-.25,.3-.51,.43-.78,3.51,1.66,7.22,2.93,11.03,3.64,4.53,.84,9.47,.59,13.46,3.16,1.21,.78,2.39,1.03,3.46,.91-.39,7.38-.62,14.77-.69,22.16-.1,11.86,.23,23.71,.96,35.54,1.31,1.09,2.31,2.54,2.76,4.17,.7,2.53,1.07,5.12,1.4,7.71,1.54,.59,3.32,.58,4.81-.02-.08-5.28-.69-10.57,.46-15.75-.08-.68-.14-1.36-.13-2.05,.03-2.68,.61-5.31,1.82-7.69-.45-12.78-.43-25.57,.09-38.35,.46,.32,1.05,.47,1.69,.27,.23-.07,.46-.15,.67-.25,.35-.02,1.07,.03,1.25-.01,.44-.1,.87-.24,1.26-.48,.92-.56,1.65-1.58,2.23-2.46,.7-1.07,1.18-2.22,1.49-3.42,1-.8,1.94-1.71,2.81-2.71,3.62-2.85,5.58-8.86,7.15-12.56,2.67-6.31,4.83-12.81,6.42-19.48,.17-.73,.2-1.41,.13-2.04,.48-2.34,.9-4.69,1.27-7.03,.1-.64,.29-1.18,.55-1.65-.07-.05-.15-.09-.22-.14,.26,.03,.53,.05,.81,.04,12.22-.25,24.45-.11,36.67,.47,6.22,.3,12.46,.62,18.66,1.23,4.11,.4,8.82,.96,12.1,3.7,6.27,5.26,4.34,16.48,4.95,23.68,.5,5.84,2.2,10.94,4.68,15.7,.95,4.21,2.06,8.39,3.33,12.52,1.08,3.51,5.58,5.4,8.74,3.24,3.5-2.39,8.5,1.71,11.31,3.81,4.83,3.62,9.65,7.23,14.65,10.6,9.82,6.63,20.09,12.6,30.71,17.84,8.79,4.34,17.82,8.19,27.03,11.54,5.55,.86,11.09,1.73,16.64,2.52,.89-.33,1.85-.54,2.84-.62,9.45-.71,18.73,.6,28.01,2.05-.36-1.94-1.71-3.63-4.27-4.13Zm-31.33-185.91c-.38,.21-.75,.43-1.12,.65-.02-.21-.06-.41-.1-.61,.41-.01,.81-.02,1.22-.03Zm-139.46,29.59s.08,.05,.12,.07c0,0,0,.01,.01,.02l-3.32,.83s-.08,.03-.13,.04c-.14-.18-.29-.35-.45-.52,1.26-.14,2.51-.28,3.77-.43ZM248.76,147.33c4.26-2.54,8.53-5.06,12.83-7.54-4.24,2.58-8.51,5.09-12.83,7.54ZM281.34,18.78c-.68-.22-1.24-.07-1.66,.28l-1.78-.5c1.12-.48,2.28-.27,3.44,.22Zm-2.85,4.25c-.21,.06-.42,.13-.63,.21-.16-.21-.34-.4-.55-.54,.39,.11,.79,.22,1.18,.33Zm-9.49,7.18c.16,.35,.42,.65,.76,.87l-7.74,8.64c2.37-3.14,4.7-6.3,6.99-9.51Zm77.68,25.54c-7.25-2.94-15.85-1.4-22.64,2.36-2.85,1.58-5.32,3.56-7.49,5.82-1.83,.71-3.55,1.7-5.16,2.88-.03-.03-.06-.07-.1-.1-1.97,2.07-3.98,4.06-6.19,5.88-.11,.09-.21,.17-.32,.25-.33,1.8-1.47,3.36-2.94,4.54-.08,.09-.18,.17-.27,.26-.31,1.39-1.04,2.67-2.19,3.55-.41,.72-.82,1.45-1.21,2.2-.29-.44-.66-.83-1.09-1.18-.43,.09-.89,.14-1.38,.14-2.17,0-3.74-.91-4.75-2.23-17.12-4.23-34.18-8.71-51.16-13.46,.28-.31,.55-.63,.83-.95,.45-.03,.91-.2,1.31-.61,3.08-3.11,6.17-6.22,9.25-9.32,.71,.42,1.63,.41,2.38-.42l17.28-19.28c1.52-1.69,3.03-3.38,4.55-5.07,1.65-1.84,2.97-4.2,5.82-3.81,1.87,.25,3.84,1.35,5.61,1.99,2.12,.77,4.23,1.54,6.34,2.32,16.51,6.08,32.87,12.57,49.09,19.4,.42,.18,.82,.21,1.19,.16,.42,1.16,1.43,2.07,2.69,2.47,.64,.21,1.28,.41,1.92,.62-.48,.52-.94,1.06-1.38,1.62Zm61.04,2.1c-.18-.23-.36-.45-.55-.67,.25,0,.5,0,.76-.04-.07,.24-.14,.48-.2,.71Zm69.07,21.18c-1.83,.49-3.66,.97-5.49,1.46-11.43-3.15-23.4-4.2-35.23-3.09-.9,.08-1.68,.34-2.35,.71,10.64-9.86,20.96-20.06,30.9-30.64,3.52,7.98,7.28,15.87,11.29,23.62,.94,1.82,1.92,3.62,2.91,5.41-.67,.85-1.35,1.69-2.03,2.54Zm6.05,6.06c-.21-.21-.43-.4-.67-.59,.24-.29,.47-.58,.71-.86,.32,.56,.65,1.12,.97,1.68-.33-.08-.67-.15-1-.23Zm12.79,49.15c-.07,.9-.14,1.81-.21,2.71-2.17-1.13-4.45-1.76-6.8-2.21,.03-.25,.05-.5,.05-.76-.14-9.95-.43-19.9-.9-29.84-.13-2.77-.34-5.77-1.85-8.01,1.12-.77,1.92-1.97,2.31-3.3,1.54,2.66,3.07,5.34,4.54,8.05,2.61,4.78,4,9.64,4.11,15.1,.13,6.1-.75,12.2-1.25,18.27Zm19.46-27.55c-1.74,11.44-4.36,22.7-7.87,33.73-.25,.78-.28,1.52-.17,2.21-.1,0-.21-.02-.31-.03,.11-1.77,.24-3.54,.37-5.31,.89-11.69,3.39-24.11-.97-35.41-.05-.12-.1-.24-.14-.36,3.3,.59,6.43,2.1,9.43,3.9-.15,.38-.26,.8-.33,1.27Zm41.63-73.99c-.07,.03-.13,.05-.2,.08-.65-.37-1.3-.74-1.96-1.1,.71,.35,1.43,.69,2.15,1.03Zm-14.77-8.25c1.93,1.26,3.89,2.47,5.88,3.62-2.07-.95-4.2-1.59-6.4-1.48,.39-.62,.56-1.38,.52-2.14Zm-14.94,20.65c.27-.31,.54-.62,.81-.94,2.8-3.31,5.22-7.05,8.23-10.16,3.37-3.48,6.71-3.91,10.98-1.7,1.52,.79,3.03,1.61,4.54,2.45-8.25,3.31-16.44,6.75-24.56,10.35Z"/>
      <path d="M726.74,20.85c2.27-.36,.5,1.29,0,0h0Z"/>
    </g>
  </g>
</svg>