<?xml version="1.0" encoding="UTF-8"?>
<svg id="_图层_2" data-name="图层 2" xmlns="http://www.w3.org/2000/svg" viewBox="0 0 1860.95 70.41">
  <g id="_图层_1-2" data-name="图层 1">
    <g>
      <g>
        <path d="M0,1.73H103.94c29.28,0,46.75,6.83,46.75,18.42,0,6.73-7.36,12.06-19.69,14.4v.19c14.38,2.06,23.12,7.95,23.12,15.52,0,11.5-17.29,18.42-46.75,18.42H0V1.73ZM91.61,55.31c10.96,0,17.81-2.8,17.81-7.2s-6.85-7.39-17.81-7.39H44.52v14.59h47.09Zm-2.4-26.55c10.44,0,16.78-2.53,16.78-6.83s-6.34-6.83-16.78-6.83H44.69v13.65h44.52Z"/>
        <path d="M214.91,1.73h51.88l59.76,66.95h-46.41l-9.59-11.69h-61.13l-9.42,11.69h-46.23L214.91,1.73Zm47.09,41.51l-21.57-26.46h-.34l-21.92,26.46h43.84Z"/>
        <path d="M335.29,1.73h87.16c47.6,0,74.14,11.97,74.14,33.47s-26.54,33.47-74.14,33.47h-87.16V1.73Zm80.99,50.4c23.63,0,36.99-6.08,36.99-16.92s-13.36-17.02-36.99-17.02h-37.5V52.13h37.5Z"/>
        <path d="M510.81,1.73h103.94c29.28,0,46.75,6.83,46.75,18.42,0,6.73-7.36,12.06-19.69,14.4v.19c14.38,2.06,23.12,7.95,23.12,15.52,0,11.5-17.29,18.42-46.75,18.42h-107.36V1.73Zm91.61,53.58c10.96,0,17.81-2.8,17.81-7.2s-6.85-7.39-17.81-7.39h-47.09v14.59h47.09Zm-2.4-26.55c10.44,0,16.78-2.53,16.78-6.83s-6.34-6.83-16.78-6.83h-44.52v13.65h44.52Z"/>
        <path d="M675.89,37.82V1.73h44.69V36.51c0,10.85,13.18,16.18,34.25,16.18s34.08-5.33,34.08-16.18V1.73h44.52V37.82c0,20.95-29.11,32.54-78.77,32.54s-78.77-11.59-78.77-32.54Z"/>
        <path d="M845.93,36.61C845.93,14.73,880.86,.05,932.92,.05c39.21,0,69.86,8.79,75,21.79l-41.61,3.93c-3.42-5.42-17.29-9.16-33.56-9.16-25,0-42.12,7.76-42.12,19.26s19.18,18.61,47.77,18.61c22.26,0,39.38-5.05,40.92-12.06h-65.75v-12.34h108.91v38.62h-35.27l-1.71-10.94h-.17c-11.81,7.67-34.76,12.62-60.1,12.62-47.43,0-79.28-13.65-79.28-33.75Z"/>
      </g>
      <g>
        <path d="M1110.59,48.06l8.56-2.81c5.65,12.06,31.68,20.1,64.38,20.1,28.6,0,47.26-5.89,47.26-14.4,0-6.64-10.96-10.66-36.64-12.9l-34.42-3.09c-27.23-2.34-38.87-6.92-38.87-15.9,0-11.69,20.72-19.08,51.03-19.08,26.54,0,48.97,6.17,57.71,15.33l-8.05,3.09c-7.71-7.95-26.88-13.37-49.66-13.37-24.49,0-40.92,5.52-40.92,13.74,0,5.89,9.07,9.26,30.65,11.03l33.9,2.99c31.68,2.71,45.38,8.04,45.38,17.58,0,12.16-22.95,20.01-57.71,20.01-36.47,0-64.9-8.98-72.6-22.35Z"/>
        <path d="M1298.61,7.39h-58.56V2.34h127.4V7.39h-58.73v60.68h-10.1V7.39Z"/>
        <path d="M1375.15,39.46V2.34h10.1V39.46c0,16.74,20.89,25.81,54.45,25.81s54.28-9.07,54.28-25.81V2.34h10.1V39.46c0,19.73-24.83,30.95-64.38,30.95s-64.56-11.22-64.56-30.95Z"/>
        <path d="M1519.51,2.34h67.64c45.21,0,70.21,11.78,70.21,32.91s-25,32.82-70.21,32.82h-67.64V2.34Zm67.64,60.78c38.53,0,60.1-10,60.1-27.86s-21.58-27.86-60.1-27.86h-57.54V63.11h57.54Z"/>
        <path d="M1672.77,2.34h10.1V68.07h-10.1V2.34Z"/>
        <path d="M1698.28,35.25c0-20.95,32.88-35.25,81.34-35.25s81.34,14.31,81.34,35.25-32.71,35.16-81.34,35.16-81.34-14.21-81.34-35.16Zm152.57,0c0-17.95-28.77-30.2-71.23-30.2s-71.23,12.25-71.23,30.2,28.77,30.2,71.23,30.2,71.23-12.25,71.23-30.2Z"/>
      </g>
      <rect x="1039.46" y="40.67" width="35.64" height="28.01"/>
    </g>
  </g>
</svg>