<?xml version="1.0" encoding="UTF-8"?>
<svg id="_图层_2" data-name="图层 2" xmlns="http://www.w3.org/2000/svg" viewBox="0 0 700.25 26.49">
  <defs>
    <style>
      .cls-1 {
        fill: #eaeaea;
      }
    </style>
  </defs>
  <g id="_图层_1-2" data-name="图层 1">
    <g>
      <path class="cls-1" d="M49.29,13.07v-.07c4.64-.88,7.41-2.89,7.41-5.42,0-4.36-6.57-6.93-17.59-6.93H0V25.84H40.4c11.08,0,17.59-2.6,17.59-6.93,0-2.85-3.29-5.07-8.7-5.84ZM16.82,5.68h16.75c3.93,0,6.31,.95,6.31,2.57s-2.38,2.57-6.31,2.57H16.82V5.68Zm17.65,15.13H16.75v-5.49h17.72c4.12,0,6.7,1.06,6.7,2.78s-2.58,2.71-6.7,2.71Z"/>
      <path class="cls-1" d="M80.87,.65l-23,25.19h17.4l3.54-4.4h23l3.61,4.4h17.46L100.39,.65h-19.52Zm1.22,15.62l8.25-9.96h.13l8.12,9.96h-16.49Z"/>
      <path class="cls-1" d="M158.96,.65h-32.8V25.84h32.8c17.91,0,27.9-4.5,27.9-12.6S176.87,.65,158.96,.65Zm-2.32,18.96h-14.11V6.84h14.11c8.89,0,13.92,2.32,13.92,6.4s-5.03,6.37-13.92,6.37Z"/>
      <path class="cls-1" d="M241.5,13.07v-.07c4.64-.88,7.41-2.89,7.41-5.42,0-4.36-6.57-6.93-17.59-6.93h-39.11V25.84h40.4c11.08,0,17.59-2.6,17.59-6.93,0-2.85-3.29-5.07-8.7-5.84Zm-32.47-7.39h16.75c3.93,0,6.31,.95,6.31,2.57s-2.38,2.57-6.31,2.57h-16.75V5.68Zm17.65,15.13h-17.72v-5.49h17.72c4.12,0,6.7,1.06,6.7,2.78s-2.58,2.71-6.7,2.71Z"/>
      <path class="cls-1" d="M296.85,13.74c0,4.08-4.9,6.09-12.82,6.09s-12.89-2.01-12.89-6.09V.65h-16.82V14.23c0,7.88,11.02,12.24,29.64,12.24s29.64-4.36,29.64-12.24V.65h-16.75V13.74Z"/>
      <path class="cls-1" d="M343.76,15.96h24.74c-.58,2.64-7.02,4.54-15.4,4.54-10.76,0-17.98-2.81-17.98-7s6.44-7.25,15.85-7.25c6.12,0,11.34,1.41,12.63,3.45l15.66-1.48C377.33,3.32,365.8,.02,351.04,.02c-19.59,0-32.73,5.52-32.73,13.76,0,7.56,11.98,12.7,29.83,12.7,9.54,0,18.17-1.86,22.62-4.75h.06l.64,4.12h13.27V11.31h-40.98v4.64Z"/>
      <path class="cls-1" d="M449.85,12.35l-12.76-1.13c-8.12-.67-11.53-1.94-11.53-4.15,0-3.1,6.19-5.17,15.4-5.17,8.57,0,15.79,2.04,18.69,5.03l3.03-1.16c-3.29-3.45-11.73-5.77-21.71-5.77-11.41,0-19.2,2.78-19.2,7.18,0,3.38,4.38,5.1,14.63,5.98l12.95,1.16c9.67,.84,13.79,2.36,13.79,4.85,0,3.2-7.02,5.42-17.78,5.42-12.31,0-22.1-3.03-24.23-7.56l-3.22,1.06c2.9,5.03,13.6,8.41,27.32,8.41s21.71-2.96,21.71-7.53c0-3.59-5.15-5.59-17.07-6.61Z"/>
      <polygon class="cls-1" points="466.61 2.78 488.65 2.78 488.65 25.61 492.45 25.61 492.45 2.78 514.55 2.78 514.55 .88 466.61 .88 466.61 2.78"/>
      <path class="cls-1" d="M562.16,14.85c0,6.3-7.8,9.71-20.42,9.71s-20.49-3.41-20.49-9.71V.88h-3.8V14.85c0,7.42,9.34,11.65,24.29,11.65s24.23-4.22,24.23-11.65V.88h-3.8V14.85Z"/>
      <path class="cls-1" d="M597.22,.88h-25.45V25.61h25.45c17.01,0,26.42-4.4,26.42-12.35s-9.41-12.39-26.42-12.39Zm0,22.87h-21.65V2.78h21.65c14.5,0,22.62,3.73,22.62,10.48s-8.12,10.48-22.62,10.48Z"/>
      <rect class="cls-1" x="629.44" y=".88" width="3.8" height="24.73"/>
      <path class="cls-1" d="M669.64,0c-18.23,0-30.61,5.38-30.61,13.26s12.37,13.23,30.61,13.23,30.61-5.35,30.61-13.23-12.31-13.26-30.61-13.26Zm0,24.63c-15.98,0-26.8-4.61-26.8-11.36s10.82-11.36,26.8-11.36,26.8,4.61,26.8,11.36-10.82,11.36-26.8,11.36Z"/>
      <rect class="cls-1" x="391.13" y="15.3" width="13.41" height="10.54"/>
    </g>
  </g>
</svg>