<?xml version="1.0" encoding="UTF-8"?>
<svg id="_图层_2" data-name="图层 2" xmlns="http://www.w3.org/2000/svg" viewBox="0 0 329.46 208.49">
  <defs>
    <style>
      .cls-1 {
        fill: #eaeaea;
      }
    </style>
  </defs>
  <g id="_图层_1-2" data-name="图层 1">
    <g>
      <path class="cls-1" d="M328.93,19.47c-26.54,8.56-53.08,17.13-79.62,25.69-.39-.88-.77-1.77-1.16-2.65,9.5-7.7,18.99-15.41,28.49-23.11-10.97,4.69-21.01,10.61-31.29,16.08-2.26,1.2-5.81,1.91-8,1-15.18-6.29-30.93-6.6-46.68-4.3-13.58,1.99-26.94,5.44-40.91,8.35-2.38-12.73-4.77-25.54-7.57-40.53-1.05,3.83-1.7,5.57-1.99,7.37-1.93,12-3.69,24.03-5.74,36.01-.32,1.89-1.4,4.32-2.9,5.23-10.87,6.59-22.23,12.41-32.86,19.35-10.84,7.09-21.1,15.08-31.42,22.93-1.75,1.33-2.54,3.95-3.77,5.97,17.28-14.81,36.16-26.2,59.57-27.88,2.66-.19,5.35-.05,8.01,.14,13.46,.98,21.27,9.55,20.85,23.07-.34,10.87-4.81,20.33-11.23,28.74-17.27,22.66-40.27,36.33-68.24,41.07-5.92,1-12.65-.22-18.51-2.02-10.69-3.3-15.92-13.04-13.95-24.1,.76-4.29,2.01-8.49,3.04-12.73-8.71,13.91-11.81,28.56-5.34,44.57-12.74,7.8-25.23,15.45-37.71,23.1,2.39,.64,4.2,.16,5.91-.55,10.77-4.51,21.47-9.17,32.31-13.5,1.89-.75,5.17-1.1,6.38-.03,16.77,14.93,36.69,16.71,57.6,14.08,10.98-1.38,21.87-3.5,32.97-5.31,1.92,7.84,3.77,15.41,5.62,22.99,2.52-7.02,3.44-13.88,3.96-20.77,.33-4.37,2.18-6.4,6.38-8.33,16.54-7.58,33.07-15.31,48.86-24.31,6.91-3.94,12.52-5.27,20.14-2.94,14.98,4.58,30.27,8.13,45.42,12.11,.16-.37,.32-.74,.48-1.11-12.92-9.32-25.84-18.65-40.34-29.12,3.43-2.66,6.26-4.29,8.38-6.58,12.23-13.28,23.27-28,24.02-46.38,.56-13.77,5.74-21.77,17.64-26.77,1.55-.65,2.91-1.76,4.35-2.67,16.46-10.32,32.91-20.64,49.37-30.95-.18-.4-.35-.81-.53-1.21Zm-92.12,73.89c-8.24,24.69-25.34,42.4-46.2,56.62-34.54,23.55-72.2,38.01-114.78,35.98-18.59-.88-33.31-11.62-38.14-26.78-.78-2.45-1.02-5.07-1.16-7.67,9.1,19.71,23.88,28.38,46.5,25.25,39.77-5.49,73.62-22.72,99.86-53.53,9.58-11.25,16.83-23.92,17.31-39.29,.57-18.23-9.47-29.84-27.48-32.46-17.66-2.57-34.3,1.5-50.67,7.44-3.82,1.39-7.59,2.95-11.38,4.43,29.26-15.61,59.73-28.67,94.06-23.79,29.16,4.15,41.46,25.64,32.06,53.78Z"/>
      <path class="cls-1" d="M68.03,149.82c16.52-2.6,30.47-10.58,41.1-23.13,5.96-7.03,10.98-15.56,13.93-24.26,4.19-12.34-3.67-21.71-16.73-21.7-18.78,0-33.17,9.6-46.27,21.84-1.85,1.73-4.09,3.05-6.15,4.55-2.02,2.95-4.04,5.9-6.06,8.84-.48,2.29-.69,4.7-1.5,6.87-6.65,17.79,2.97,29.93,21.67,26.99Zm-16.07-26.89c2.59-11.43,18.18-24.87,29.97-25.85,7.76-.64,11.74,3.76,10.52,11.64-1.94,12.55-18.55,26.58-31.31,26.46-7.22-.07-10.85-4.91-9.19-12.25Z"/>
    </g>
  </g>
</svg>