<?xml version="1.0" encoding="UTF-8"?>
<svg id="_图层_2" data-name="图层 2" xmlns="http://www.w3.org/2000/svg" viewBox="0 0 43.1 29.15">
  <defs>
    <style>
      .cls-1 {
        fill: #eaeaea;
      }
    </style>
  </defs>
  <g id="_图层_1-2" data-name="图层 1">
    <path class="cls-1" d="M20.06,.02c4.7,0,9.41-.06,14.11,.03,2.3,.04,4.6,.33,6.89,.6,1.37,.16,2.17,1.57,2.02,3.19-.21,2.3-.31,4.62-.58,6.91-.26,2.2-.69,4.38-1.02,6.57-.25,1.72-.38,3.46-.71,5.16-.26,1.36-.73,2.68-1.08,4.02-.08,.3-.16,.64-.09,.93,.33,1.28-1.2,1.91-2.1,1.68-2.56-.67-5.1-1.33-7.82-1.27-5.56,.12-11.12,0-16.68,.06-1.08,.01-2.17,.35-3.23,.62-.81,.21-1.55,.18-2.4,.06-1.52-.22-3.1-.16-4.64-.02-1.29,.12-2.05-.39-2.18-1.66C-.19,19.91,.35,12.89,.17,5.88,.15,4.77,.02,3.66,0,2.55-.01,1.47,.89,.42,1.97,.23,2.65,.12,3.35,.03,4.04,.03c5.34-.02,10.68,0,16.02,0ZM4.04,2.67c.04,.11,.06,.24,.14,.33,2.66,3.02,5.33,6.02,8.53,8.52,1.15,.9,2.12,2.08,3.03,3.24,1.07,1.37,1.56,1.61,3.07,.74,3.89-2.25,7.74-4.57,11.61-6.84,.81-.47,1.64-.95,2.53-1.24,2.09-.7,3.18-2.52,4.59-3.98,.12-.13,.1-.39,.19-.77H4.04ZM25.26,14.51c.23,.92,.3,1.71,.6,2.39,1.12,2.54,2.29,5.05,3.48,7.55,.28,.58,.76,.92,1.51,.96,1.51,.09,3.02,.3,4.52,.5,.55,.07,1.08,.27,1.6,.4,.11-.21,.2-.32,.22-.43,.47-2.52,1.01-5.03,1.39-7.56,.46-2.97,.79-5.96,1.17-8.94,.07-.51,.15-1.03,.22-1.5-1.56,.48-3.04,.9-4.5,1.38-1.07,.35-2.15,.71-3.16,1.18-1.2,.56-2.35,1.23-3.49,1.89-1.28,.74-2.54,1.53-3.59,2.16Zm-13.08,1.48c-3.04-3.55-6.14-7.17-9.39-10.98-.08,.45-.11,.57-.11,.69,0,5.72-.02,11.44,.01,17.16,0,.99,.24,1.98,.37,2.95H7.13c1.69-3.29,3.31-6.45,5.04-9.83Zm-2.11,9.47H26.9c-.54-1.45-.95-2.7-1.48-3.9-.81-1.85-2.17-3.46-2.28-5.66-1.58,.89-3.06,1.72-4.55,2.56-.1,.05-.15,.18-.22,.28-.72,.96-1.83,1.01-2.65,.11-.44-.49-.89-.97-1.4-1.53-1.49,2.85-2.89,5.52-4.27,8.14Z"/>
  </g>
</svg>